<svg width="32" height="32" viewBox="0 0 32 32" fill="none" xmlns="http://www.w3.org/2000/svg">
<path fill-rule="evenodd" clip-rule="evenodd" d="M0 16C0 24.7358 7.00098 31.8364 15.6983 31.9972C15.7624 31.999 15.8267 32 15.8911 32L15.9336 31.9998L16 32C24.8366 32 32 24.8366 32 16C32 7.16344 24.8366 0 16 0L15.9336 0.000134964L15.8911 0C15.8267 0 15.7624 0.00093186 15.6983 0.00278714C7.00098 0.163615 0 7.26422 0 16ZM28.1844 21.9068C26.9892 24.3678 25.0702 26.4122 22.7044 27.7636C23.7882 26.1474 24.6386 24.148 25.1846 21.9068H28.1844ZM29.0954 19.4453C29.3842 18.3451 29.5378 17.1902 29.5378 15.9994C29.5378 14.7201 29.3604 13.4823 29.0288 12.3092H25.6122C25.7838 13.4964 25.874 14.7325 25.874 16C25.874 17.1804 25.7958 18.3335 25.6464 19.4453H29.0954ZM23.1596 19.4453C23.3238 18.3478 23.4118 17.1935 23.4118 15.9994C23.4118 14.7164 23.3102 13.4792 23.1216 12.3092H17.2855V19.4453H23.1596ZM17.2855 21.9068V29.2924C19.5855 28.4782 21.5936 25.7012 22.6412 21.9068H17.2855ZM14.7692 21.9068V29.3796C12.3555 28.696 10.2287 25.8508 9.1399 21.9068H14.7692ZM14.7692 19.4453V12.3092H8.65936C8.47092 13.4792 8.36914 14.7164 8.36914 15.9994C8.36914 17.1935 8.45728 18.3478 8.62142 19.4453H14.7692ZM6.13582 19.4453C5.98646 18.3335 5.9082 17.1804 5.9082 16C5.9082 14.7325 5.99844 13.4964 6.17004 12.3092H2.96996C2.63836 13.4823 2.46094 14.7201 2.46094 15.9994C2.46094 17.1902 2.61468 18.3451 2.90338 19.4453H6.13582ZM3.81434 21.9068C4.94938 24.2436 6.73684 26.205 8.9399 27.5538C7.92182 25.9758 7.12014 24.0522 6.59754 21.9068H3.81434ZM28.0628 9.84766H25.1234C24.5758 7.70496 23.7476 5.79172 22.703 4.23448C24.9908 5.54084 26.8608 7.49524 28.0628 9.84766ZM22.572 9.84766C21.5068 6.1787 19.5359 3.50296 17.2855 2.70634V9.84766H22.572ZM3.93608 9.84766C5.0754 7.61794 6.81474 5.7458 8.94118 4.44414C7.96148 5.96218 7.1821 7.80016 6.6588 9.84766H3.93608ZM14.7692 2.61918C12.4056 3.28868 10.3171 6.0307 9.20906 9.84766H14.7692V2.61918Z" fill="white"/>
</svg>
